M48
;Layer_Color=9474304
;FILE_FORMAT=4:4
METRIC,LZ
;TYPE=PLATED
T1F00S00C0.5000
T2F00S00C0.7112
T3F00S00C0.7620
T4F00S00C0.8500
T5F00S00C0.9000
T6F00S00C1.0000
T8F00S00C1.2700
T9F00S00C1.5000
T10F00S00C3.0000
%
T01
X00342844Y00278674
X00616529Y00116819
T02
X00118054Y00130084
X00118689Y00187869
X00271089Y00218349
X00393009Y00258989
X00545409Y00252639
X00638119Y00223429
X00674314Y00192314
X00662249Y00159929
X00715589Y00096429
T03
X00545409Y00252639
T04
X00293949Y00161199
X00330779
X00370149Y00159929
Y00236129
X00330779Y00237399
X00293949
X00531439Y00231049
X00558109Y00229779
X00588589
Y00153579
X00558109
X00531439Y00154849
T05
X00057729Y00038009
Y00063409
Y00088809
Y00114209
Y00156119
Y00181519
Y00206919
Y00232319
X00161869Y00227239
Y00252639
Y00182789
Y00157389
X00238069
Y00182789
Y00227239
Y00252639
X00415869Y00255179
Y00229779
X00417139Y00189139
Y00163739
X00493339
Y00189139
X00492069Y00229779
Y00255179
T06
X00212669Y00077379
X00238069
X00263469
X00288869
X00314269
X00339669
X00365069
X00390469
Y00305979
X00365069
X00339669
X00314269
X00288869
X00263469
X00238069
X00212669
X00415869
X00441269
X00466669
X00492069
X00517469
X00542869
X00569539
X00542869Y00077379
X00517469
X00492069
X00466669
X00441269
X00415869
T08
X00690189Y00120559
Y00145959
X00747339
Y00120559
Y00238669
Y00264069
X00690189
Y00238669
T09
X00085669Y00282319
X00111069Y00311129
X00060269
T10
X00026639Y00023916
X00027046Y00339135
X00744049Y00336588
X00742139Y00029007
M30
