G04*
G04 #@! TF.GenerationSoftware,Altium Limited,Altium Designer,18.0.7 (293)*
G04*
G04 Layer_Physical_Order=2*
G04 Layer_Color=16711680*
%FSLAX44Y44*%
%MOMM*%
G71*
G01*
G75*
%ADD15C,0.8000*%
%ADD16C,1.0000*%
%ADD17C,3.5000*%
%ADD18C,1.5240*%
%ADD19O,2.0000X3.0000*%
%ADD20R,2.0000X3.0000*%
%ADD21C,1.5000*%
%ADD22R,1.5000X1.5000*%
%ADD23R,2.0000X3.0000*%
%ADD24O,3.0000X2.0000*%
%ADD25O,2.0000X3.0000*%
%ADD26R,1.5000X1.5000*%
%ADD27C,1.4000*%
%ADD28C,1.7780*%
%ADD29C,1.0000*%
%ADD30C,0.5000*%
G36*
X765636Y7955D02*
X38824D01*
X41087Y9467D01*
X45517Y16096D01*
X47072Y23916D01*
X45517Y31735D01*
X41087Y38364D01*
X34458Y42793D01*
X26639Y44348D01*
X18820Y42793D01*
X12191Y38364D01*
X7955Y32024D01*
Y332389D01*
X8169Y331316D01*
X12598Y324687D01*
X19227Y320258D01*
X27046Y318702D01*
X34865Y320258D01*
X41494Y324687D01*
X45923Y331316D01*
X47478Y339135D01*
X45923Y346954D01*
X41494Y353583D01*
X35767Y357410D01*
X765636D01*
X765636Y7955D01*
D02*
G37*
%LPC*%
G36*
X744049Y357021D02*
X736230Y355465D01*
X729601Y351036D01*
X725172Y344407D01*
X723617Y336588D01*
X725172Y328769D01*
X729601Y322140D01*
X736230Y317711D01*
X744049Y316155D01*
X751869Y317711D01*
X758497Y322140D01*
X762927Y328769D01*
X764482Y336588D01*
X762927Y344407D01*
X758497Y351036D01*
X751869Y355465D01*
X744049Y357021D01*
D02*
G37*
G36*
X61539Y329176D02*
Y312399D01*
X73842D01*
Y316129D01*
X69867Y325727D01*
X61539Y329176D01*
D02*
G37*
G36*
X58999D02*
X50671Y325727D01*
X46696Y316129D01*
Y312399D01*
X58999D01*
Y329176D01*
D02*
G37*
G36*
X123609Y328669D02*
X98529D01*
Y293589D01*
X123609D01*
Y302968D01*
X159759D01*
X162518Y300208D01*
X168289Y297818D01*
X200405D01*
X203071Y291382D01*
X212669Y287406D01*
X222267Y291382D01*
X225369Y298871D01*
X228471Y291382D01*
X230990Y290338D01*
Y285659D01*
X233064Y280654D01*
X239413Y274304D01*
X240287Y273942D01*
X130373D01*
X125367Y271869D01*
X117027Y263528D01*
X43759D01*
X38753Y261455D01*
X26054Y248755D01*
X23980Y243749D01*
Y98969D01*
X26054Y93964D01*
X36213Y83804D01*
X37680Y83197D01*
X41219Y81730D01*
X49794D01*
X50045Y81125D01*
X57729Y77942D01*
X65413Y81125D01*
X68596Y88809D01*
X65413Y96494D01*
X57729Y99677D01*
X50045Y96494D01*
X49794Y95888D01*
X44151D01*
X38138Y101901D01*
Y240817D01*
X46691Y249370D01*
X119959D01*
X124964Y251444D01*
X133305Y259785D01*
X153961D01*
X153934Y259718D01*
X144089D01*
X139083Y257645D01*
X120837Y239398D01*
X65664D01*
X65413Y240004D01*
X57729Y243186D01*
X50045Y240004D01*
X46862Y232319D01*
X50045Y224635D01*
X57729Y221452D01*
X65413Y224635D01*
X65664Y225240D01*
X123769D01*
X128774Y227314D01*
X147021Y245560D01*
X153934D01*
X154185Y244955D01*
X161869Y241772D01*
X169553Y244955D01*
X172736Y252639D01*
X169776Y259785D01*
X230161D01*
X227202Y252639D01*
X230385Y244955D01*
X238069Y241772D01*
X245753Y244955D01*
X246004Y245560D01*
X260537D01*
X273703Y232394D01*
X275170Y231787D01*
X278709Y230320D01*
X286555D01*
X286647Y230098D01*
X293949Y227073D01*
X301250Y230098D01*
X304275Y237399D01*
X301250Y244701D01*
X293949Y247725D01*
X286647Y244701D01*
X286555Y244478D01*
X281641D01*
X268474Y257645D01*
X263469Y259718D01*
X246004D01*
X245977Y259785D01*
X325463D01*
X341480Y243768D01*
Y214793D01*
X343554Y209788D01*
X347364Y205978D01*
X352369Y203904D01*
X397073D01*
X402078Y205978D01*
X415263Y219163D01*
X415869Y218912D01*
X423553Y222095D01*
X426736Y229779D01*
X423553Y237464D01*
X415869Y240646D01*
X408185Y237464D01*
X405002Y229779D01*
X405252Y229174D01*
X394141Y218062D01*
X355638D01*
Y246700D01*
X354172Y250239D01*
X353564Y251705D01*
X333401Y271869D01*
X332528Y272230D01*
X338698D01*
X341574Y271039D01*
Y278674D01*
Y286310D01*
X341351Y286217D01*
X340939Y286388D01*
X247351D01*
X245148Y288591D01*
Y290338D01*
X247667Y291382D01*
X250769Y298871D01*
X253871Y291382D01*
X263469Y287406D01*
X273067Y291382D01*
X276169Y298871D01*
X279271Y291382D01*
X288869Y287406D01*
X298467Y291382D01*
X301569Y298871D01*
X304671Y291382D01*
X314269Y287406D01*
X323867Y291382D01*
X326969Y298871D01*
X330071Y291382D01*
X339669Y287406D01*
X349267Y291382D01*
X352369Y298871D01*
X355471Y291382D01*
X365069Y287406D01*
X374667Y291382D01*
X377769Y298871D01*
X380871Y291382D01*
X390469Y287406D01*
X400067Y291382D01*
X403169Y298871D01*
X406271Y291382D01*
X415869Y287406D01*
X425467Y291382D01*
X428569Y298871D01*
X431671Y291382D01*
X441269Y287406D01*
X450867Y291382D01*
X453969Y298871D01*
X457071Y291382D01*
X466669Y287406D01*
X476267Y291382D01*
X479369Y298871D01*
X482471Y291382D01*
X492069Y287406D01*
X501667Y291382D01*
X504769Y298871D01*
X507871Y291382D01*
X517469Y287406D01*
X527067Y291382D01*
X530169Y298871D01*
X533271Y291382D01*
X542869Y287406D01*
X552467Y291382D01*
X556204Y300404D01*
X559941Y291382D01*
X569539Y287406D01*
X579137Y291382D01*
X583112Y300979D01*
Y310979D01*
X579137Y320577D01*
X569539Y324552D01*
X559941Y320577D01*
X556204Y311554D01*
X552467Y320577D01*
X542869Y324552D01*
X533271Y320577D01*
X530169Y313087D01*
X527067Y320577D01*
X517469Y324552D01*
X507871Y320577D01*
X504769Y313087D01*
X501667Y320577D01*
X492069Y324552D01*
X482471Y320577D01*
X479369Y313087D01*
X476267Y320577D01*
X466669Y324552D01*
X457071Y320577D01*
X453969Y313087D01*
X450867Y320577D01*
X441269Y324552D01*
X431671Y320577D01*
X428569Y313087D01*
X425467Y320577D01*
X415869Y324552D01*
X406271Y320577D01*
X403169Y313087D01*
X400067Y320577D01*
X390469Y324552D01*
X380871Y320577D01*
X377769Y313087D01*
X374667Y320577D01*
X365069Y324552D01*
X355471Y320577D01*
X352369Y313087D01*
X349267Y320577D01*
X339669Y324552D01*
X330071Y320577D01*
X326969Y313087D01*
X323867Y320577D01*
X314269Y324552D01*
X304671Y320577D01*
X301569Y313087D01*
X298467Y320577D01*
X288869Y324552D01*
X279271Y320577D01*
X276169Y313087D01*
X273067Y320577D01*
X263469Y324552D01*
X253871Y320577D01*
X250769Y313087D01*
X247667Y320577D01*
X239339Y324026D01*
Y305979D01*
X236799D01*
Y324026D01*
X228471Y320577D01*
X225369Y313087D01*
X222267Y320577D01*
X212669Y324552D01*
X203071Y320577D01*
X200405Y314140D01*
X171670D01*
X168910Y316900D01*
X163139Y319291D01*
X123609D01*
Y328669D01*
D02*
G37*
G36*
X90669Y295892D02*
X86939D01*
Y283589D01*
X103716D01*
X100267Y291917D01*
X90669Y295892D01*
D02*
G37*
G36*
X344114Y286310D02*
Y279944D01*
X350479D01*
X348615Y284445D01*
X344114Y286310D01*
D02*
G37*
G36*
X350479Y277404D02*
X344114D01*
Y271039D01*
X348615Y272903D01*
X350479Y277404D01*
D02*
G37*
G36*
X103716Y281049D02*
X86939D01*
Y268746D01*
X90669D01*
X100267Y272722D01*
X103716Y281049D01*
D02*
G37*
G36*
X73842Y309859D02*
X60269D01*
X46696D01*
Y306129D01*
X50671Y296532D01*
X52108Y295937D01*
Y286999D01*
X54498Y281229D01*
X59178Y276548D01*
X64949Y274158D01*
X70476D01*
X71071Y272722D01*
X80669Y268746D01*
X84399D01*
Y282319D01*
Y295892D01*
X80669D01*
X71071Y291917D01*
X70476Y290480D01*
X68430D01*
Y295937D01*
X69867Y296532D01*
X73842Y306129D01*
Y309859D01*
D02*
G37*
G36*
X747339Y276441D02*
X738591Y272817D01*
X734967Y264069D01*
X738591Y255321D01*
X747339Y251698D01*
X756087Y255321D01*
X759711Y264069D01*
X756087Y272817D01*
X747339Y276441D01*
D02*
G37*
G36*
X673679Y286838D02*
X379489D01*
X374484Y284765D01*
X365144Y275425D01*
X363070Y270419D01*
Y243523D01*
X362847Y243431D01*
X359823Y236129D01*
X362847Y228828D01*
X370149Y225803D01*
X377450Y228828D01*
X380475Y236129D01*
X377450Y243431D01*
X377228Y243523D01*
Y267487D01*
X382421Y272681D01*
X395419D01*
X387683Y264945D01*
X387238Y264760D01*
X385374Y260259D01*
X393009D01*
Y258989D01*
X394279D01*
Y251354D01*
X398780Y253218D01*
X400760Y258000D01*
X404901Y262141D01*
X407885D01*
X405002Y255179D01*
X408185Y247495D01*
X415869Y244312D01*
X423553Y247495D01*
X426736Y255179D01*
X423853Y262141D01*
X484085D01*
X481202Y255179D01*
X484385Y247495D01*
X492069Y244312D01*
X499753Y247495D01*
X500004Y248100D01*
X504377D01*
X521205Y231272D01*
X521113Y231049D01*
X524137Y223748D01*
X531439Y220723D01*
X538741Y223748D01*
X541765Y231049D01*
X538741Y238351D01*
X531439Y241375D01*
X531216Y241283D01*
X512314Y260185D01*
X507593Y262141D01*
X541798Y262141D01*
X537633Y260415D01*
X534412Y252639D01*
X537633Y244863D01*
X545409Y241642D01*
X552255Y244478D01*
X624579D01*
X629958Y239099D01*
Y223429D01*
X630141Y222987D01*
X629987Y222435D01*
X629991Y222404D01*
X631455Y219814D01*
X632348Y217659D01*
X632773Y217483D01*
X633064Y216966D01*
X635964Y216161D01*
X638119Y215268D01*
X638544Y215444D01*
X639083Y215294D01*
X641555Y216692D01*
X643890Y217659D01*
X644080Y218118D01*
X644521Y218367D01*
X645208Y220842D01*
X646280Y223429D01*
Y242479D01*
X643890Y248250D01*
X633730Y258410D01*
X627959Y260800D01*
X552255D01*
X549020Y262141D01*
X638997D01*
X667474Y233664D01*
X672479Y231590D01*
X680749D01*
X681441Y229921D01*
X688919Y226824D01*
Y238669D01*
Y250515D01*
X681441Y247418D01*
X680749Y245748D01*
X675411D01*
X648479Y272681D01*
X670747D01*
X678269Y265159D01*
X677817Y264069D01*
X681441Y255321D01*
X690189Y251698D01*
X698937Y255321D01*
X702561Y264069D01*
X698937Y272817D01*
X690189Y276441D01*
X687940Y275509D01*
X678684Y284765D01*
X673679Y286838D01*
D02*
G37*
G36*
X391739Y257719D02*
X385374D01*
X387238Y253218D01*
X391739Y251354D01*
Y257719D01*
D02*
G37*
G36*
X748609Y250515D02*
Y239939D01*
X759185D01*
X756087Y247418D01*
X748609Y250515D01*
D02*
G37*
G36*
X330779Y247725D02*
X323477Y244701D01*
X320453Y237399D01*
X320545Y237177D01*
X273237Y189868D01*
X246004D01*
X245753Y190474D01*
X241536Y192220D01*
X252039D01*
X257044Y194294D01*
X274247Y211496D01*
X276860Y212579D01*
X279250Y218349D01*
X276860Y224120D01*
X271089Y226511D01*
X265318Y224120D01*
X264236Y221507D01*
X249107Y206378D01*
X203779D01*
X200240Y204912D01*
X198773Y204305D01*
X162474Y168006D01*
X161869Y168256D01*
X154185Y165074D01*
X151002Y157389D01*
X154185Y149705D01*
X161869Y146522D01*
X169553Y149705D01*
X172736Y157389D01*
X172485Y157995D01*
X206711Y192220D01*
X234602D01*
X230385Y190474D01*
X227202Y182789D01*
X230385Y175105D01*
X238069Y171922D01*
X245753Y175105D01*
X246004Y175711D01*
X276169D01*
X281174Y177784D01*
X330556Y227166D01*
X330779Y227073D01*
X338080Y230098D01*
X341105Y237399D01*
X338080Y244701D01*
X330779Y247725D01*
D02*
G37*
G36*
X691459Y250515D02*
Y238669D01*
Y226824D01*
X698937Y229921D01*
X699629Y231590D01*
X737899D01*
X738591Y229921D01*
X746069Y226824D01*
Y238669D01*
Y250515D01*
X738591Y247418D01*
X737899Y245748D01*
X699629D01*
X698937Y247418D01*
X691459Y250515D01*
D02*
G37*
G36*
X759185Y237399D02*
X748609D01*
Y226824D01*
X756087Y229921D01*
X759185Y237399D01*
D02*
G37*
G36*
X502109Y239819D02*
X482029D01*
Y219739D01*
X502109D01*
Y239819D01*
D02*
G37*
G36*
X588589Y240105D02*
X581287Y237081D01*
X578263Y229779D01*
X578355Y229557D01*
X562797Y213998D01*
X526359D01*
X522820Y212532D01*
X521353Y211925D01*
X505647Y196218D01*
X501274D01*
X501023Y196824D01*
X493339Y200007D01*
X485655Y196824D01*
X482472Y189139D01*
X485655Y181455D01*
X493339Y178272D01*
X501023Y181455D01*
X501274Y182061D01*
X508579D01*
X513584Y184134D01*
X529291Y199841D01*
X537336D01*
X532784Y197955D01*
X505647Y170818D01*
X503379D01*
Y173779D01*
X483299D01*
Y153699D01*
X503379D01*
Y156660D01*
X508579D01*
X513584Y158734D01*
X540721Y185870D01*
X670168D01*
X672781Y184788D01*
X542869D01*
X537864Y182715D01*
X526433Y171285D01*
X524360Y166279D01*
Y162243D01*
X524137Y162151D01*
X521113Y154849D01*
X524137Y147548D01*
X531439Y144523D01*
X538741Y147548D01*
X541765Y154849D01*
X538741Y162151D01*
X538518Y162243D01*
Y163347D01*
X545801Y170630D01*
X726627D01*
X740260Y156997D01*
Y155399D01*
X738591Y154707D01*
X734967Y145959D01*
X738591Y137211D01*
X747339Y133588D01*
X756087Y137211D01*
X759711Y145959D01*
X756087Y154707D01*
X754418Y155399D01*
Y159929D01*
X752952Y163469D01*
X752344Y164935D01*
X734564Y182715D01*
X729559Y184788D01*
X675847D01*
X680085Y186544D01*
X682475Y192314D01*
X680085Y198085D01*
X674314Y200476D01*
X673234Y200028D01*
X566182D01*
X570734Y201914D01*
X588366Y219546D01*
X588589Y219453D01*
X595891Y222478D01*
X598915Y229779D01*
X595891Y237081D01*
X588589Y240105D01*
D02*
G37*
G36*
X558109D02*
X550807Y237081D01*
X547783Y229779D01*
X550807Y222478D01*
X558109Y219453D01*
X565410Y222478D01*
X568435Y229779D01*
X565410Y237081D01*
X558109Y240105D01*
D02*
G37*
G36*
X248109Y237279D02*
X228029D01*
Y217199D01*
X248109D01*
Y237279D01*
D02*
G37*
G36*
X161869Y238106D02*
X154185Y234924D01*
X151002Y227239D01*
X151252Y226634D01*
X138617Y213998D01*
X65664D01*
X65413Y214604D01*
X57729Y217787D01*
X50045Y214604D01*
X46862Y206919D01*
X50045Y199235D01*
X57729Y196052D01*
X65413Y199235D01*
X65664Y199841D01*
X141549D01*
X146554Y201914D01*
X161264Y216623D01*
X161869Y216372D01*
X169553Y219555D01*
X172736Y227239D01*
X169553Y234924D01*
X161869Y238106D01*
D02*
G37*
G36*
X417139Y200007D02*
X409455Y196824D01*
X406272Y189139D01*
X409455Y181455D01*
X417139Y178272D01*
X424823Y181455D01*
X428006Y189139D01*
X424823Y196824D01*
X417139Y200007D01*
D02*
G37*
G36*
X161869Y193657D02*
X154185Y190474D01*
X151002Y182789D01*
X154185Y175105D01*
X161869Y171922D01*
X169553Y175105D01*
X172736Y182789D01*
X169553Y190474D01*
X161869Y193657D01*
D02*
G37*
G36*
X57729Y192386D02*
X50045Y189204D01*
X46862Y181519D01*
X50045Y173835D01*
X57729Y170652D01*
X65413Y173835D01*
X68596Y181519D01*
X65413Y189204D01*
X57729Y192386D01*
D02*
G37*
G36*
X662249Y168090D02*
X657870Y166277D01*
X622148D01*
X617142Y164204D01*
X613597Y160658D01*
X595983D01*
X595891Y160881D01*
X588589Y163905D01*
X581287Y160881D01*
X578263Y153579D01*
X581287Y146278D01*
X588589Y143253D01*
X595891Y146278D01*
X595983Y146501D01*
X616529D01*
X621534Y148574D01*
X625080Y152119D01*
X659584D01*
X661189Y151509D01*
X661998Y151872D01*
X662249Y151768D01*
X668020Y154158D01*
X670410Y159929D01*
X668020Y165700D01*
X662249Y168090D01*
D02*
G37*
G36*
X417139Y174606D02*
X409455Y171424D01*
X406272Y163739D01*
X409455Y156055D01*
X417139Y152872D01*
X424823Y156055D01*
X428006Y163739D01*
X424823Y171424D01*
X417139Y174606D01*
D02*
G37*
G36*
X330779Y171525D02*
X323477Y168501D01*
X320453Y161199D01*
X323477Y153898D01*
X330779Y150873D01*
X338080Y153898D01*
X341105Y161199D01*
X338080Y168501D01*
X330779Y171525D01*
D02*
G37*
G36*
X370149Y170255D02*
X362847Y167231D01*
X359823Y159929D01*
X362847Y152628D01*
X370149Y149603D01*
X377450Y152628D01*
X380475Y159929D01*
X377450Y167231D01*
X370149Y170255D01*
D02*
G37*
G36*
X558109Y163905D02*
X550807Y160881D01*
X547783Y153579D01*
X550807Y146278D01*
X558109Y143253D01*
X565410Y146278D01*
X568435Y153579D01*
X565410Y160881D01*
X558109Y163905D01*
D02*
G37*
G36*
X293949Y171525D02*
X286647Y168501D01*
X283623Y161199D01*
X286647Y153898D01*
X293949Y150873D01*
X294172Y150966D01*
X316813Y128324D01*
X321819Y126251D01*
X667399D01*
X672404Y128324D01*
X681397Y137317D01*
X681441Y137211D01*
X690189Y133588D01*
X698937Y137211D01*
X702561Y145959D01*
X698937Y154707D01*
X690189Y158331D01*
X681441Y154707D01*
X680749Y153038D01*
X680029D01*
X675023Y150965D01*
X664467Y140408D01*
X324751D01*
X304183Y160977D01*
X304275Y161199D01*
X301250Y168501D01*
X293949Y171525D01*
D02*
G37*
G36*
X747339Y132931D02*
X738591Y129307D01*
X737899Y127638D01*
X699629D01*
X698937Y129307D01*
X690189Y132931D01*
X681441Y129307D01*
X677817Y120559D01*
X681441Y111811D01*
X681497Y111788D01*
X607247Y37538D01*
X256171D01*
X245148Y48561D01*
Y61738D01*
X247667Y62782D01*
X250769Y70271D01*
X253871Y62782D01*
X263469Y58806D01*
X273067Y62782D01*
X276169Y70271D01*
X279271Y62782D01*
X288869Y58806D01*
X298467Y62782D01*
X301569Y70271D01*
X304671Y62782D01*
X314269Y58806D01*
X323867Y62782D01*
X326969Y70271D01*
X330071Y62782D01*
X339669Y58806D01*
X349267Y62782D01*
X352369Y70271D01*
X355471Y62782D01*
X365069Y58806D01*
X374667Y62782D01*
X377769Y70271D01*
X380871Y62782D01*
X390469Y58806D01*
X400067Y62782D01*
X403169Y70271D01*
X406271Y62782D01*
X415869Y58806D01*
X425467Y62782D01*
X428569Y70271D01*
X431671Y62782D01*
X441269Y58806D01*
X450867Y62782D01*
X453969Y70271D01*
X457071Y62782D01*
X466669Y58806D01*
X476267Y62782D01*
X479369Y70271D01*
X482471Y62782D01*
X492069Y58806D01*
X501667Y62782D01*
X504769Y70271D01*
X507871Y62782D01*
X517469Y58806D01*
X527067Y62782D01*
X530169Y70271D01*
X533271Y62782D01*
X542869Y58806D01*
X552467Y62782D01*
X555729Y70658D01*
Y59839D01*
X580809D01*
Y94919D01*
X555729D01*
Y84101D01*
X552467Y91977D01*
X549948Y93020D01*
Y104997D01*
X554691Y109741D01*
X613916D01*
X616529Y108658D01*
X622300Y111048D01*
X624690Y116819D01*
X622300Y122590D01*
X616529Y124981D01*
X613916Y123898D01*
X551759D01*
X546754Y121825D01*
X537864Y112935D01*
X535790Y107929D01*
Y93020D01*
X533271Y91977D01*
X530169Y84487D01*
X527067Y91977D01*
X517469Y95953D01*
X507871Y91977D01*
X504769Y84487D01*
X501667Y91977D01*
X492069Y95953D01*
X482471Y91977D01*
X479369Y84487D01*
X476267Y91977D01*
X466669Y95953D01*
X457071Y91977D01*
X453969Y84487D01*
X450867Y91977D01*
X441269Y95953D01*
X431671Y91977D01*
X428569Y84487D01*
X425467Y91977D01*
X415869Y95953D01*
X406271Y91977D01*
X403169Y84487D01*
X400067Y91977D01*
X390469Y95953D01*
X380871Y91977D01*
X377769Y84487D01*
X374667Y91977D01*
X365069Y95953D01*
X355471Y91977D01*
X352369Y84487D01*
X349267Y91977D01*
X339669Y95953D01*
X330071Y91977D01*
X326969Y84487D01*
X323867Y91977D01*
X314269Y95953D01*
X304671Y91977D01*
X301569Y84487D01*
X298467Y91977D01*
X288869Y95953D01*
X279271Y91977D01*
X276169Y84487D01*
X273067Y91977D01*
X263469Y95953D01*
X253871Y91977D01*
X250769Y84487D01*
X247667Y91977D01*
X238069Y95953D01*
X228471Y91977D01*
X225369Y84487D01*
X222267Y91977D01*
X212669Y95953D01*
X203071Y91977D01*
X199096Y82379D01*
Y72379D01*
X203071Y62782D01*
X212669Y58806D01*
X222267Y62782D01*
X225369Y70271D01*
X228471Y62782D01*
X230990Y61738D01*
Y45629D01*
X233064Y40624D01*
X248233Y25454D01*
X249699Y24847D01*
X249889Y24768D01*
X235921D01*
X217674Y43015D01*
X212669Y45088D01*
X67769D01*
Y48049D01*
X47689D01*
Y27969D01*
X67769D01*
Y30931D01*
X209737D01*
X227983Y12684D01*
X232989Y10611D01*
X636849D01*
X641854Y12684D01*
X718747Y89576D01*
X721360Y90659D01*
X723750Y96429D01*
X721360Y102200D01*
X715589Y104591D01*
X709818Y102200D01*
X708736Y99587D01*
X633917Y24768D01*
X613529D01*
X615184Y25454D01*
X695194Y105464D01*
X697268Y110469D01*
Y111120D01*
X698937Y111811D01*
X699629Y113481D01*
X737899D01*
X738591Y111811D01*
X747339Y108188D01*
X756087Y111811D01*
X759711Y120559D01*
X756087Y129307D01*
X747339Y132931D01*
D02*
G37*
G36*
X118689Y196031D02*
X112918Y193640D01*
X110528Y187869D01*
X111083Y186528D01*
X110517Y131591D01*
X109893Y130084D01*
X112283Y124313D01*
X118054Y121923D01*
X123825Y124313D01*
X126215Y130084D01*
X124698Y133748D01*
X125215Y183921D01*
X126850Y187869D01*
X124460Y193640D01*
X118689Y196031D01*
D02*
G37*
G36*
X248109Y167429D02*
X228029D01*
Y164468D01*
X224099D01*
X220560Y163002D01*
X219093Y162395D01*
X170367Y113668D01*
X110191D01*
X67769Y156090D01*
Y166159D01*
X47689D01*
Y146079D01*
X57758D01*
X102253Y101584D01*
X103720Y100977D01*
X107259Y99510D01*
X173299D01*
X178304Y101584D01*
X227031Y150310D01*
X228029D01*
Y147349D01*
X248109D01*
Y167429D01*
D02*
G37*
G36*
X57729Y125077D02*
X50045Y121894D01*
X46862Y114209D01*
X50045Y106525D01*
X57729Y103342D01*
X65413Y106525D01*
X68596Y114209D01*
X65413Y121894D01*
X57729Y125077D01*
D02*
G37*
G36*
Y74276D02*
X50045Y71094D01*
X46862Y63409D01*
X50045Y55725D01*
X57729Y52542D01*
X65413Y55725D01*
X68596Y63409D01*
X65413Y71094D01*
X57729Y74276D01*
D02*
G37*
G36*
X742139Y49439D02*
X734320Y47884D01*
X727691Y43455D01*
X723262Y36826D01*
X721706Y29007D01*
X723262Y21188D01*
X727691Y14559D01*
X734320Y10129D01*
X742139Y8574D01*
X749958Y10129D01*
X756587Y14559D01*
X761016Y21188D01*
X762572Y29007D01*
X761016Y36826D01*
X756587Y43455D01*
X749958Y47884D01*
X742139Y49439D01*
D02*
G37*
%LPD*%
D15*
X660331Y159198D02*
X660981Y158585D01*
X551759Y116819D02*
X616529D01*
X542869Y107929D02*
X551759Y116819D01*
X542869Y77379D02*
Y107929D01*
X667399Y133329D02*
X680029Y145959D01*
X321819Y133329D02*
X667399D01*
X293949Y161199D02*
X321819Y133329D01*
X690189Y110469D02*
Y120559D01*
X610179Y30459D02*
X690189Y110469D01*
X253239Y30459D02*
X610179D01*
X238069Y45629D02*
X253239Y30459D01*
X537789Y192949D02*
X673679D01*
X508579Y163739D02*
X537789Y192949D01*
X636849Y17689D02*
X715589Y96429D01*
X232989Y17689D02*
X636849D01*
X729559Y177709D02*
X747339Y159929D01*
Y145959D02*
Y159929D01*
X690189Y120559D02*
X747339D01*
X672479Y238669D02*
X690189D01*
X641929Y269219D02*
X672479Y238669D01*
X392374Y259624D02*
X401969Y269219D01*
X689369Y264069D02*
X690189D01*
X673679Y279759D02*
X689369Y264069D01*
X401969Y269219D02*
X641929Y269219D01*
X379489Y279759D02*
X673679D01*
X370149Y270419D02*
X379489Y279759D01*
X252039Y199299D02*
X271089Y218349D01*
X203779Y199299D02*
X252039D01*
X531439Y154849D02*
Y166279D01*
X493339Y163739D02*
X508579D01*
X660331Y159198D02*
X661518D01*
X622148D02*
X660331D01*
X661518D02*
X662249Y159929D01*
X616529Y153579D02*
X622148Y159198D01*
X117582Y130205D02*
X118169Y187151D01*
X117465Y130090D02*
X117582Y130205D01*
X276169Y182789D02*
X330779Y237399D01*
X238069Y182789D02*
X276169D01*
X224099Y157389D02*
X238069D01*
X173299Y106589D02*
X224099Y157389D01*
X107259Y106589D02*
X173299D01*
X57729Y156119D02*
X107259Y106589D01*
X212669Y38009D02*
X232989Y17689D01*
X57729Y38009D02*
X212669D01*
X507309Y255179D02*
X531439Y231049D01*
X492069Y255179D02*
X507309D01*
X278709Y237399D02*
X293949D01*
X263469Y252639D02*
X278709Y237399D01*
X238069Y252639D02*
X263469D01*
X680029Y145959D02*
X690189D01*
X588589Y153579D02*
X616529D01*
X244419Y279309D02*
X340939D01*
X238069Y285659D02*
X244419Y279309D01*
X328395Y266863D02*
X348559Y246700D01*
Y214793D02*
Y246700D01*
Y214793D02*
X352369Y210983D01*
X370149Y236129D02*
Y270419D01*
X526359Y206919D02*
X565729D01*
X508579Y189139D02*
X526359Y206919D01*
X493339Y189139D02*
X508579D01*
X542869Y177709D02*
X729559D01*
X531439Y166279D02*
X542869Y177709D01*
X565729Y206919D02*
X588589Y229779D01*
X238069Y45629D02*
Y77379D01*
X43759Y256449D02*
X119959D01*
X31059Y243749D02*
X43759Y256449D01*
X31059Y98969D02*
Y243749D01*
X41219Y88809D02*
X57729D01*
X31059Y98969D02*
X41219Y88809D01*
X130373Y266863D02*
X328395D01*
X119959Y256449D02*
X130373Y266863D01*
X144089Y252639D02*
X161869D01*
X123769Y232319D02*
X144089Y252639D01*
X57729Y232319D02*
X123769D01*
X141549Y206919D02*
X161869Y227239D01*
X57729Y206919D02*
X141549D01*
X161869Y157389D02*
X203779Y199299D01*
X238069Y285659D02*
Y305979D01*
X352369Y210983D02*
X397073D01*
X415869Y229779D01*
X690189Y238669D02*
X747339D01*
D16*
X638088Y223426D02*
X638092Y223395D01*
X168289Y305979D02*
X212669D01*
X163139Y311129D02*
X168289Y305979D01*
X111069Y311129D02*
X163139D01*
X64949Y282319D02*
X85669D01*
X60269Y286999D02*
X64949Y282319D01*
X60269Y286999D02*
Y311129D01*
X638119Y223429D02*
Y242479D01*
X627959Y252639D02*
X638119Y242479D01*
X545409Y252639D02*
X627959D01*
D17*
X742139Y29007D02*
D03*
X26639Y23916D02*
D03*
X744049Y336588D02*
D03*
X27046Y339135D02*
D03*
D18*
X545409Y252639D02*
D03*
D19*
X517469Y305979D02*
D03*
X542869D02*
D03*
X415869D02*
D03*
X441269D02*
D03*
X466669D02*
D03*
X492069D02*
D03*
X314269D02*
D03*
X339669D02*
D03*
X365069D02*
D03*
X390469D02*
D03*
X288869D02*
D03*
X263469D02*
D03*
X238069D02*
D03*
X212669D02*
D03*
Y77379D02*
D03*
X238069D02*
D03*
X263469D02*
D03*
X288869D02*
D03*
X390469D02*
D03*
X365069D02*
D03*
X339669D02*
D03*
X314269D02*
D03*
X492069D02*
D03*
X466669D02*
D03*
X441269D02*
D03*
X415869D02*
D03*
X542869D02*
D03*
X517469D02*
D03*
X569539Y305979D02*
D03*
D20*
X568269Y77379D02*
D03*
D21*
X57729Y232319D02*
D03*
Y206919D02*
D03*
Y181519D02*
D03*
Y114209D02*
D03*
Y88809D02*
D03*
Y63409D02*
D03*
X417139Y189139D02*
D03*
Y163739D02*
D03*
X493339Y189139D02*
D03*
X415869Y255179D02*
D03*
Y229779D02*
D03*
X492069Y255179D02*
D03*
X161869Y252639D02*
D03*
Y227239D02*
D03*
X238069Y252639D02*
D03*
X161869Y182789D02*
D03*
Y157389D02*
D03*
X238069Y182789D02*
D03*
D22*
X57729Y156119D02*
D03*
Y38009D02*
D03*
D23*
X111069Y311129D02*
D03*
D24*
X85669Y282319D02*
D03*
D25*
X60269Y311129D02*
D03*
D26*
X493339Y163739D02*
D03*
X492069Y229779D02*
D03*
X238069Y227239D02*
D03*
Y157389D02*
D03*
D27*
X588589Y229779D02*
D03*
Y153579D02*
D03*
X558109Y229779D02*
D03*
Y153579D02*
D03*
X531439Y231049D02*
D03*
Y154849D02*
D03*
X370149Y236129D02*
D03*
Y159929D02*
D03*
X330779Y237399D02*
D03*
Y161199D02*
D03*
X293949Y237399D02*
D03*
Y161199D02*
D03*
D28*
X747339Y145959D02*
D03*
Y120559D02*
D03*
X690189Y145959D02*
D03*
Y120559D02*
D03*
X747339Y264069D02*
D03*
Y238669D02*
D03*
X690189Y264069D02*
D03*
Y238669D02*
D03*
D29*
X616529Y116819D02*
D03*
X674314Y192314D02*
D03*
X715589Y96429D02*
D03*
X271089Y218349D02*
D03*
X662249Y159929D02*
D03*
X638119Y223429D02*
D03*
X545409Y252639D02*
D03*
X118054Y130084D02*
D03*
X118689Y187869D02*
D03*
X393009Y258989D02*
D03*
X342844Y278674D02*
D03*
D30*
X771091Y2500D02*
X771091Y362865D01*
X2500Y2500D02*
X771091D01*
X2500D02*
Y362865D01*
X771091D01*
M02*
